<svg width="24" height="20" viewBox="0 0 24 20" fill="none" xmlns="http://www.w3.org/2000/svg">
<path d="M22.1752 8.71493C22.0826 8.7002 21.9888 8.6934 21.895 8.69459H5.91941L6.26776 8.5359C6.60826 8.37804 6.91803 8.16321 7.18319 7.90111L11.6631 3.51314C12.2532 2.96147 12.3523 2.074 11.8981 1.4104C11.3694 0.703256 10.3556 0.549717 9.63359 1.06752C9.57526 1.10937 9.51982 1.155 9.46772 1.20409L1.36655 9.13895C0.733448 9.75836 0.732891 10.7632 1.36529 11.3833C1.36569 11.3837 1.36615 11.3841 1.36655 11.3845L9.46772 19.3194C10.1013 19.9382 11.1272 19.9368 11.7591 19.3162C11.8088 19.2674 11.8552 19.2154 11.8981 19.1607C12.3523 18.4971 12.2532 17.6096 11.6631 17.0579L7.19129 12.662C6.95358 12.4289 6.68026 12.2335 6.38118 12.0828L5.89511 11.8685H21.8058C22.6335 11.8986 23.3597 11.3323 23.5151 10.5355C23.6584 9.67033 23.0585 8.85528 22.1752 8.71493Z" fill="#C06FEB"/>
</svg>
