<svg width="26" height="23" viewBox="0 0 26 23" fill="none" xmlns="http://www.w3.org/2000/svg">
<path fill-rule="evenodd" clip-rule="evenodd" d="M23.1259 5.07891H18.9844L18.4505 2.3714C18.317 1.69437 17.726 1.20294 17.0453 1.20294H9.0489C8.36822 1.20294 7.77721 1.69437 7.64375 2.3714L7.10986 5.07891H2.96835C1.78311 5.07891 0.818848 6.05696 0.818848 7.25914V19.856C0.818848 21.0582 1.78311 22.0363 2.96835 22.0363H23.1259C24.3111 22.0363 25.2754 21.0582 25.2754 19.856V7.25914C25.2754 6.05696 24.3111 5.07891 23.1259 5.07891ZM9.0489 2.65643H17.0453L17.523 5.07891H8.57123L9.0489 2.65643ZM23.1259 20.5828C23.5209 20.5828 23.8424 20.2568 23.8424 19.856V7.25914C23.8424 6.85842 23.5209 6.5324 23.1259 6.5324H2.96835C2.57327 6.5324 2.25185 6.85842 2.25185 7.25914V19.856C2.25185 20.2568 2.57327 20.5828 2.96835 20.5828H23.1259Z" fill="#A6A6A6"/>
<path fill-rule="evenodd" clip-rule="evenodd" d="M8.06519 13.4312C8.06519 10.6841 10.3 8.44928 13.0471 8.44928C15.7941 8.44928 18.029 10.6841 18.029 13.4312C18.029 16.1782 15.7941 18.413 13.0471 18.413C10.3 18.413 8.06519 16.1782 8.06519 13.4312ZM9.41164 13.4312C9.41164 15.4357 11.0425 17.0666 13.0471 17.0666C15.0517 17.0666 16.6825 15.4357 16.6825 13.4312C16.6825 11.4266 15.0517 9.79573 13.0471 9.79573C11.0425 9.79573 9.41164 11.4266 9.41164 13.4312Z" fill="#A6A6A6"/>
<path d="M7.36844 8.44928H5.13878C4.75398 8.44928 4.44202 8.65206 4.44202 8.90218C4.44202 9.1523 4.75398 9.35508 5.13878 9.35508H7.36844C7.75324 9.35508 8.06521 9.1523 8.06521 8.90218C8.06521 8.65206 7.75324 8.44928 7.36844 8.44928Z" fill="#A6A6A6"/>
</svg>
