<svg width="43" height="43" viewBox="0 0 43 43" fill="none" xmlns="http://www.w3.org/2000/svg">
<path d="M37.9992 42.5725H4.57321C2.05154 42.5725 0 40.5051 0 37.9641V16.1791C0 15.485 0.558431 14.9223 1.24724 14.9223H41.3252C42.014 14.9223 42.5725 15.485 42.5725 16.1791V37.9641C42.5725 40.5051 40.5209 42.5725 37.9992 42.5725Z" fill="#F5F5FF"/>
<path d="M41.3516 14.9223H21.739V42.5725H38.0964C40.5645 42.5725 42.5723 40.5051 42.5723 37.9641V16.1791C42.5723 15.485 42.0258 14.9223 41.3516 14.9223Z" fill="#E2E7FA"/>
<path d="M37.9992 4.82782H4.57321C2.05154 4.82782 0 6.88291 0 9.40895V16.239H42.5725V9.40895C42.5725 6.88291 40.5209 4.82782 37.9992 4.82782Z" fill="#EF5CA2"/>
<path d="M38.0964 4.82782H21.739V16.239H42.5723V9.40895C42.5723 6.88291 40.5645 4.82782 38.0964 4.82782Z" fill="#EA1C81"/>
<path d="M30.797 0C29.2962 0 28.0796 1.10035 28.0796 2.45779V9.83117C28.0796 11.1886 29.2962 12.289 30.797 12.289C32.2978 12.289 33.5144 11.1886 33.5144 9.83117V2.45779C33.5144 1.10035 32.2978 0 30.797 0Z" fill="#FFC178"/>
<path d="M11.7753 12.289C10.2744 12.289 9.05786 11.1886 9.05786 9.83117V2.45779C9.05786 1.10035 10.2744 0 11.7753 0C13.2761 0 14.4926 1.10035 14.4926 2.45779V9.83117C14.4926 11.1886 13.2761 12.289 11.7753 12.289Z" fill="#FFFA8C"/>
<path d="M31.418 19.7501H28.3644C27.7069 19.7501 27.1738 20.3116 27.1738 21.0041C27.1738 21.6966 27.7069 22.2581 28.3644 22.2581H30.2275V36.0518C30.2275 36.7443 30.7605 37.3058 31.418 37.3058C32.0756 37.3058 32.6086 36.7443 32.6086 36.0518V21.0041C32.6086 20.3116 32.0756 19.7501 31.418 19.7501Z" fill="#453D81"/>
<path d="M17.2101 24.766C17.2101 22.0003 14.7721 19.7501 11.7754 19.7501C9.18414 19.7501 6.94139 21.4513 6.44257 23.7952C6.29791 24.4748 6.77762 25.1339 7.51395 25.2674C8.24945 25.4008 8.96431 24.9581 9.10896 24.2786C9.35815 23.1079 10.4795 22.2581 11.7754 22.2581C13.2737 22.2581 14.4928 23.3831 14.4928 24.766C14.4928 26.1489 13.2737 27.274 11.7754 27.274C11.025 27.274 10.4167 27.8354 10.4167 28.5279C10.4167 29.2205 11.025 29.7819 11.7754 29.7819C13.2737 29.7819 14.4928 30.907 14.4928 32.2899C14.4928 33.6728 13.2737 34.7978 11.7754 34.7978C10.427 34.7978 9.27011 33.8707 9.08424 32.6413C9.06684 32.5261 9.05797 32.4079 9.05797 32.2899C9.05797 31.5973 8.44963 31.0359 7.69927 31.0359C6.94891 31.0359 6.34058 31.5973 6.34058 32.2899C6.34058 32.5234 6.35815 32.7583 6.39284 32.9879C6.76503 35.4495 9.07898 37.3058 11.7754 37.3058C14.7721 37.3058 17.2101 35.0556 17.2101 32.2899C17.2101 30.7928 16.4949 29.4478 15.3644 28.5279C16.4949 27.6081 17.2101 26.2631 17.2101 24.766Z" fill="#6B61B1"/>
</svg>
