<svg width="23" height="19" viewBox="0 0 23 19" fill="none" xmlns="http://www.w3.org/2000/svg">
<path d="M13.4394 1.09515V3.62671" stroke="#00005C" stroke-linecap="round" stroke-linejoin="round"/>
<path d="M13.4394 15.2277V17.345" stroke="#00005C" stroke-linecap="round" stroke-linejoin="round"/>
<path d="M13.4394 11.6339V6.59064" stroke="#00005C" stroke-linecap="round" stroke-linejoin="round"/>
<path fill-rule="evenodd" clip-rule="evenodd" d="M18.5155 17.5709C20.4216 17.5709 21.9654 16.0463 21.9654 14.1638V11.4518C20.7041 11.4518 19.6884 10.4487 19.6884 9.20314C19.6884 7.95765 20.7041 6.95339 21.9654 6.95339L21.9644 4.24031C21.9644 2.35795 20.4194 0.833313 18.5144 0.833313H4.49445C2.58947 0.833313 1.04454 2.35795 1.04454 4.24031L1.04346 7.04174C2.30471 7.04174 3.32048 7.95765 3.32048 9.20314C3.32048 10.4487 2.30471 11.4518 1.04346 11.4518V14.1638C1.04346 16.0463 2.58729 17.5709 4.49335 17.5709H18.5155Z" stroke="#00005C" stroke-linecap="round" stroke-linejoin="round"/>
</svg>
