<svg width="18" height="18" viewBox="0 0 18 18" fill="none" xmlns="http://www.w3.org/2000/svg">
<path d="M7.35259 14.5748H0.799927" stroke="#050152" stroke-width="1.3587" stroke-linecap="round" stroke-linejoin="round"/>
<path fill-rule="evenodd" clip-rule="evenodd" d="M17.3169 14.5748C17.3169 16.0156 16.1489 17.1835 14.7082 17.1835C13.2674 17.1835 12.0995 16.0156 12.0995 14.5748C12.0995 13.1331 13.2674 11.9661 14.7082 11.9661C16.1489 11.9661 17.3169 13.1331 17.3169 14.5748Z" stroke="#050152" stroke-width="1.3587" stroke-linecap="round" stroke-linejoin="round"/>
<path d="M10.7633 3.95479H17.317" stroke="#050152" stroke-width="1.3587" stroke-linecap="round" stroke-linejoin="round"/>
<path fill-rule="evenodd" clip-rule="evenodd" d="M0.799438 3.95483C0.799438 5.39665 1.96738 6.56352 3.40813 6.56352C4.84889 6.56352 6.01683 5.39665 6.01683 3.95483C6.01683 2.51407 4.84889 1.34613 3.40813 1.34613C1.96738 1.34613 0.799438 2.51407 0.799438 3.95483Z" stroke="#050152" stroke-width="1.3587" stroke-linecap="round" stroke-linejoin="round"/>
</svg>
