<svg width="18" height="17" viewBox="0 0 18 17" fill="none" xmlns="http://www.w3.org/2000/svg">
<g opacity="0.4">
<path fill-rule="evenodd" clip-rule="evenodd" d="M14.3634 15.7761C16.0618 15.7761 17.4368 14.4002 17.4368 12.7027V10.2571C16.3136 10.2571 15.4078 9.35128 15.4078 8.229C15.4078 7.10581 16.3136 6.20094 17.4368 6.20094L17.435 3.75257C17.435 2.0551 16.06 0.679199 14.3625 0.679199H3.75384C2.05638 0.679199 0.680471 2.0551 0.680471 3.75257L0.679565 6.27974C1.80185 6.27974 2.70765 7.10581 2.70765 8.229C2.70765 9.35128 1.80185 10.2571 0.679565 10.2571V12.7027C0.679565 14.4002 2.05457 15.7761 3.75203 15.7761H14.3634Z" stroke="#626262" stroke-linecap="round" stroke-linejoin="round"/>
<path fill-rule="evenodd" clip-rule="evenodd" d="M9.0577 9.83177L10.6338 10.6606C10.7814 10.7376 10.9544 10.6126 10.9264 10.4486L10.6247 8.69228L11.901 7.45043C12.0206 7.33359 11.9544 7.13159 11.7896 7.10714L10.0269 6.8508L9.23795 5.25296C9.16458 5.10351 8.95172 5.10351 8.87744 5.25296L8.0885 6.8508L6.32671 7.10714C6.16186 7.13159 6.09573 7.33359 6.2153 7.45043L7.49067 8.69228L7.18903 10.4486C7.16095 10.6126 7.33397 10.7376 7.48161 10.6606L9.0577 9.83177Z" stroke="#626262" stroke-linecap="round" stroke-linejoin="round"/>
</g>
</svg>
