<svg width="16" height="19" viewBox="0 0 16 19" fill="none" xmlns="http://www.w3.org/2000/svg">
<path fill-rule="evenodd" clip-rule="evenodd" d="M7.64457 14.8046L2.51952 17.6341C2.11033 17.8484 1.60621 17.6967 1.38062 17.2913V17.2913C1.31535 17.1658 1.28014 17.0266 1.2778 16.8849V4.34763C1.2778 1.95655 2.89915 1.00012 5.23232 1.00012H10.7133C12.9752 1.00012 14.6678 1.89279 14.6678 4.18822V16.8849C14.6678 17.1111 14.5787 17.328 14.4199 17.4879C14.2612 17.6478 14.046 17.7377 13.8215 17.7377C13.6784 17.7354 13.5377 17.7 13.4103 17.6341L8.25356 14.8046C8.06355 14.7012 7.83458 14.7012 7.64457 14.8046Z" stroke="#030056" stroke-linecap="round" stroke-linejoin="round"/>
<path d="M5.2948 6.69083H11.3203" stroke="#030056" stroke-linecap="round" stroke-linejoin="round"/>
</svg>
