<svg width="16" height="19" viewBox="0 0 16 19" fill="none" xmlns="http://www.w3.org/2000/svg">
<path fill-rule="evenodd" clip-rule="evenodd" d="M7.64457 14.6378L2.51952 17.4672C2.11033 17.6815 1.60621 17.5299 1.38062 17.1245V17.1245C1.31535 16.999 1.28014 16.8598 1.2778 16.7181V4.18082C1.2778 1.78974 2.89915 0.833313 5.23232 0.833313H10.7133C12.9752 0.833313 14.6678 1.72598 14.6678 4.02142V16.7181C14.6678 16.9443 14.5787 17.1612 14.4199 17.3211C14.2612 17.481 14.046 17.5709 13.8215 17.5709C13.6784 17.5686 13.5377 17.5332 13.4103 17.4672L8.25356 14.6378C8.06355 14.5344 7.83458 14.5344 7.64457 14.6378Z" stroke="#D8D8D8" stroke-linecap="round" stroke-linejoin="round"/>
<path d="M5.29482 6.52408H11.3203" stroke="#D8D8D8" stroke-linecap="round" stroke-linejoin="round"/>
</svg>
