<svg width="18" height="19" viewBox="0 0 18 19" fill="none" xmlns="http://www.w3.org/2000/svg">
<path d="M6.9722 16.5427V13.9762C6.97218 13.3234 7.51083 12.793 8.1782 12.7886H10.6228C11.2934 12.7886 11.837 13.3203 11.837 13.9762V13.9762V16.5507C11.8368 17.1049 12.2892 17.5579 12.8556 17.5709H14.4854C16.11 17.5709 17.4271 16.2827 17.4271 14.6935V14.6935V7.39265C17.4184 6.76749 17.1183 6.18044 16.6122 5.79856L11.0384 1.40685C10.0619 0.642166 8.67389 0.642166 7.69742 1.40685L2.14813 5.80653C1.6401 6.18686 1.33951 6.77489 1.33325 7.40062V14.6935C1.33325 16.2827 2.6503 17.5709 4.27495 17.5709H5.90471C6.48526 17.5709 6.95589 17.1105 6.95589 16.5427V16.5427" stroke="#040054" stroke-linecap="round" stroke-linejoin="round"/>
</svg>
