<svg width="20" height="17" viewBox="0 0 20 17" fill="none" xmlns="http://www.w3.org/2000/svg">
<path d="M3.34085 12.3045L4.83409 10.8113C3.99573 10.3048 3.23407 9.66665 2.58535 8.91233C3.56844 7.76912 4.81017 6.89079 6.18757 6.33813C5.97608 6.80975 5.8557 7.33128 5.8557 7.88169C5.8557 8.44071 5.98019 8.96962 6.19808 9.4471L7.40398 8.24138C7.21206 8.05296 7.09248 7.79138 7.09248 7.50114C7.09248 6.92787 7.55733 6.46305 8.13057 6.46305C8.42061 6.46305 8.68239 6.58263 8.87061 6.77455L9.96643 5.67873L11.2004 4.44501L11.819 3.82617C11.1047 3.68517 10.3742 3.60828 9.63476 3.60828C6.00842 3.60828 2.5705 5.36498 0.438207 8.30756L0 8.91233L0.438241 9.51716C1.24052 10.6243 2.22812 11.5635 3.34085 12.3045Z" fill="#BFBFBF"/>
<path d="M15.4672 5.2312L13.9564 6.74199C14.9851 7.2833 15.9139 8.01673 16.6842 8.91237C14.9271 10.9556 12.3451 12.1551 9.6348 12.1551C9.28787 12.1551 8.9432 12.1349 8.60206 12.0963L6.83795 13.8604C7.74411 14.0924 8.68246 14.2165 9.6348 14.2165C13.2611 14.2165 16.6993 12.4598 18.8313 9.517L19.2696 8.91217L18.8313 8.30737C17.9198 7.04994 16.7686 6.01101 15.4672 5.2312Z" fill="#BFBFBF"/>
<path d="M9.63479 11.6608C11.7219 11.6608 13.4139 9.9688 13.4139 7.88168C13.4139 7.69346 13.3955 7.51 13.3689 7.32922L9.08234 11.6161C9.26314 11.6426 9.44658 11.6608 9.63479 11.6608Z" fill="#BFBFBF"/>
<path d="M8.38068 11.4433L13.1964 6.6275L13.3646 6.45929L14.9071 4.91677L17.8295 1.99416C18.2857 1.538 18.2857 0.798372 17.8295 0.342179C17.6015 0.114183 17.3024 0 17.0036 0C16.7047 0 16.4056 0.113981 16.1776 0.342179L12.5288 3.99119L11.7618 4.7582L10.7766 5.74334L9.15517 7.36481L7.99461 8.52536L6.51168 10.0083L5.39629 11.1237L3.8787 12.6412L1.51393 15.0058C1.05777 15.462 1.05777 16.2016 1.51393 16.6578C1.74193 16.8858 2.04103 17 2.33992 17C2.63882 17 2.93792 16.886 3.16592 16.6578L6.16024 13.6635L7.84725 11.9765L8.38068 11.4433Z" fill="#BFBFBF"/>
</svg>
