<svg width="18" height="19" viewBox="0 0 18 19" fill="none" xmlns="http://www.w3.org/2000/svg">
<path d="M6.97211 16.5427V13.9762C6.97209 13.3234 7.51074 12.793 8.17811 12.7886H10.6228C11.2933 12.7886 11.8369 13.3203 11.8369 13.9762V16.5506C11.8367 17.1049 12.2891 17.5579 12.8555 17.5709H14.4853C16.1099 17.5709 17.427 16.2827 17.427 14.6935V7.39263C17.4183 6.76747 17.1182 6.18042 16.6121 5.79853L11.0383 1.40682C10.0618 0.642143 8.6738 0.642143 7.69733 1.40682L2.14804 5.80651C1.64001 6.18684 1.33942 6.77487 1.33316 7.40059V14.6935C1.33316 16.2827 2.65021 17.5709 4.27486 17.5709H5.90461C6.48517 17.5709 6.9558 17.1105 6.9558 16.5427" stroke="#D8D8D8" stroke-linecap="round" stroke-linejoin="round"/>
</svg>
