<svg width="22" height="22" viewBox="0 0 22 22" fill="none" xmlns="http://www.w3.org/2000/svg">
<path d="M10.6274 20.7394H4.88927C3.32985 20.7394 2.06457 19.4694 2.06457 17.9147V4.08531C2.06457 2.52589 3.33452 1.26061 4.88927 1.26061H10.7208C11.0709 1.26061 11.3511 0.980475 11.3511 0.630306C11.3511 0.280136 11.0709 0 10.7208 0H4.88927C2.63418 0 0.803955 1.83489 0.803955 4.08531V17.9147C0.803955 20.1698 2.63884 22 4.88927 22H10.6274C10.9776 22 11.2577 21.7199 11.2577 21.3697C11.2577 21.0195 10.9729 20.7394 10.6274 20.7394Z" fill="#D8D8D8"/>
<path d="M21.0111 10.5565L17.0051 6.55052C16.7577 6.30307 16.3608 6.30307 16.1134 6.55052C15.8659 6.79797 15.8659 7.19483 16.1134 7.44228L19.0455 10.3744H6.25726C5.90709 10.3744 5.62695 10.6545 5.62695 11.0047C5.62695 11.3548 5.90709 11.635 6.25726 11.635H19.0455L16.1134 14.5671C15.8659 14.8145 15.8659 15.2114 16.1134 15.4588C16.2348 15.5802 16.3982 15.6456 16.5569 15.6456C16.7157 15.6456 16.8791 15.5849 17.0005 15.4588L21.0064 11.4529C21.2585 11.2008 21.2585 10.7992 21.0111 10.5565Z" fill="#D8D8D8"/>
</svg>
