<svg width="45" height="41" viewBox="0 0 45 41" fill="none" xmlns="http://www.w3.org/2000/svg">
<path d="M44.3737 38.5004L40.9311 19.3829C40.8967 19.192 40.7793 19.0268 40.6111 18.9325L31.946 14.0748C31.8336 14.0117 30.921 13.93 30.7971 13.9397L32.6087 34.4668H32.5966L43.4774 39.2068C43.5618 39.2448 43.6514 39.2636 43.7407 39.2636C43.882 39.2636 44.022 39.2168 44.1372 39.126C44.3253 38.9779 44.4163 38.7371 44.3737 38.5004Z" fill="#44C868"/>
<path d="M22.4738 18.7187L13.6117 14.0663C13.5055 14.0104 13.3877 13.9877 13.2718 13.9955C13.3025 13.9936 13.3334 13.9938 13.364 13.9962L11.7876 34.4938L22.2105 39.2069C22.2946 39.2448 22.3844 39.2637 22.4738 39.2637V18.7187Z" fill="#44C868"/>
<path d="M13.5869 13.9417C13.4631 13.932 13.337 13.9571 13.2246 14.0202L3.77293 18.9325C3.60466 19.0268 3.48724 19.192 3.45292 19.3829L0.0103456 38.5005C-0.0322768 38.737 0.0587879 38.9778 0.246823 39.1261C0.362109 39.2169 0.502044 39.2637 0.643262 39.2637C0.73253 39.2637 0.822311 39.245 0.906614 39.2069L11.7465 35.2267L13.5869 13.9417Z" fill="#4CE166"/>
<path d="M31.0202 13.9958C30.935 14.0025 30.8507 14.0254 30.7725 14.0664L21.9104 18.7188V39.2638C21.9104 39.2638 21.9104 39.2638 21.9105 39.2638C21.9999 39.2638 22.0898 39.245 22.1738 39.2069L32.5967 34.4939L31.0202 13.9958Z" fill="#4CE166"/>
<path d="M2.52631 25.4989L1.76758 29.7932L11.7875 24.6794L12.6404 20.7951L12.1485 20.3983L2.52631 25.4989Z" fill="#FFDB56"/>
<path d="M12.6812 22.9997L12.584 24.232L1.78372 29.8366L0.0107898 39.4338C-0.0336629 39.6743 0.0613124 39.9192 0.257422 40.0698C0.377659 40.1622 0.523603 40.2098 0.670886 40.2098C0.763987 40.2098 0.857623 40.1908 0.945547 40.152L11.702 35.4109L12.6812 22.9997Z" fill="#A8EEFC"/>
<path d="M21.9569 21.785L12.1485 20.3983L11.8611 24.0639L21.9542 39.2194V33.7085L15.9314 24.3314L21.9569 25.044V21.785Z" fill="#FFBB24"/>
<path d="M39.8503 19.0382L35.5826 16.6912L31.5425 17.6246L31.593 18.2697L31.7926 20.8148L39.8503 19.0382Z" fill="#FFBB24"/>
<path d="M32.6088 25.7171L32.2348 20.5906L32.0142 17.5649L22.645 21.9352V25.3585L28.765 22.5305L32.6088 25.7171Z" fill="#FFDB56"/>
<path d="M44.3735 38.6832L43.483 33.8238L31.7029 20.2823L32.0628 24.8809L44.1438 39.304C44.3274 39.1533 44.4162 38.9165 44.3735 38.6832Z" fill="#FFBB24"/>
<path fill-rule="evenodd" clip-rule="evenodd" d="M13.5869 9.51527C13.5869 4.46413 17.6503 0.354736 22.6448 0.354736C27.6393 0.354736 31.7027 4.46413 31.7029 9.51527C31.7029 12.6399 30.2372 15.9945 27.3466 19.4858C25.2235 22.0502 23.1292 23.6995 23.0412 23.7685C22.9245 23.8598 22.7846 23.9055 22.6449 23.9055C22.505 23.9055 22.3653 23.8598 22.2486 23.7685C22.1605 23.6995 20.0662 22.0502 17.9432 19.4858C15.0525 15.9945 13.5869 12.6398 13.5869 9.51527ZM22.6448 12.9077C24.4974 12.9077 25.9993 11.3887 25.9993 9.51518C25.9993 7.64163 24.4974 6.12269 22.6448 6.12269C20.7922 6.12269 19.2903 7.64154 19.2903 9.51518C19.2903 11.3888 20.7922 12.9077 22.6448 12.9077Z" fill="#FF4A4A"/>
<path d="M21.9716 0.354736C21.5859 0.354736 21.206 0.380726 20.8333 0.430788C25.1639 1.01225 28.5203 4.86444 28.5203 9.51527C28.5203 12.6398 27.0923 15.9945 24.2759 19.4858C22.9456 21.1349 21.628 22.4047 20.8333 23.12C21.2744 23.517 21.555 23.7439 21.5856 23.7685C21.6992 23.8598 21.8354 23.9055 21.9717 23.9055C22.1078 23.9055 22.2441 23.8598 22.3578 23.7685C22.4436 23.6995 24.4841 22.0502 26.5526 19.4858C29.369 15.9945 30.797 12.6399 30.797 9.51527C30.7969 4.46413 26.8378 0.354736 21.9716 0.354736Z" fill="#E7343F"/>
<path d="M22.0273 39.2452L26.268 37.4316L21.739 32.9634V39.304C21.739 39.304 21.739 39.304 21.7391 39.304C21.837 39.304 21.9352 39.2846 22.0273 39.2452Z" fill="#FFDB56"/>
<path d="M40.8111 19.3415C40.7759 19.1503 40.6553 18.9847 40.4825 18.8902L39.782 18.507L31.7109 20.2771L43.4585 33.6866L40.8111 19.3415Z" fill="#1EA4E9"/>
<path d="M21.8563 39.2637V38.6146L11.8612 24.3958L11.7466 35.2267L21.5858 39.2068C21.6722 39.2449 21.7644 39.2637 21.8563 39.2637Z" fill="#1EA4E9"/>
</svg>
