<svg width="26" height="23" viewBox="0 0 26 23" fill="none" xmlns="http://www.w3.org/2000/svg">
<path fill-rule="evenodd" clip-rule="evenodd" d="M22.4664 4.60058H18.3249L17.791 1.89307C17.6576 1.21603 17.0666 0.724609 16.3859 0.724609H8.38947C7.7088 0.724609 7.11778 1.21603 6.98432 1.89307L6.45043 4.60058H2.30892C1.12369 4.60058 0.159424 5.57863 0.159424 6.78081V19.3777C0.159424 20.5799 1.12369 21.5579 2.30892 21.5579H22.4664C23.6517 21.5579 24.6159 20.5799 24.6159 19.3777V6.78081C24.6159 5.57863 23.6517 4.60058 22.4664 4.60058ZM8.38947 2.1781H16.3859L16.8636 4.60058H7.91181L8.38947 2.1781ZM22.4664 20.1045C22.8615 20.1045 23.1829 19.7784 23.1829 19.3777V6.78081C23.1829 6.38008 22.8615 6.05407 22.4664 6.05407H2.30892C1.91384 6.05407 1.59242 6.38008 1.59242 6.78081V19.3777C1.59242 19.7784 1.91384 20.1045 2.30892 20.1045H22.4664Z" fill="#FCFCFC"/>
<path fill-rule="evenodd" clip-rule="evenodd" d="M7.40579 12.953C7.40579 10.2059 9.64064 7.97107 12.3877 7.97107C15.1347 7.97107 17.3696 10.2059 17.3696 12.953C17.3696 15.7 15.1347 17.9348 12.3877 17.9348C9.64064 17.9348 7.40579 15.7 7.40579 12.953ZM8.75225 12.953C8.75225 14.9575 10.3831 16.5884 12.3877 16.5884C14.3923 16.5884 16.0231 14.9575 16.0231 12.953C16.0231 10.9484 14.3923 9.31752 12.3877 9.31752C10.3831 9.31752 8.75225 10.9484 8.75225 12.953Z" fill="#FCFCFC"/>
<path d="M6.70904 7.97107H4.47939C4.09459 7.97107 3.78262 8.17385 3.78262 8.42397C3.78262 8.67409 4.09459 8.87687 4.47939 8.87687H6.70904C7.09385 8.87687 7.40581 8.67409 7.40581 8.42397C7.40581 8.17385 7.09385 7.97107 6.70904 7.97107Z" fill="#FCFCFC"/>
</svg>
