<svg width="49" height="48" viewBox="0 0 49 48" fill="none" xmlns="http://www.w3.org/2000/svg">
<path fill-rule="evenodd" clip-rule="evenodd" d="M45.1068 22.0707C45.1068 21.2583 45.7662 20.5989 46.5787 20.5989C47.3912 20.5989 48.0507 21.2583 48.0507 22.0707V39.7323C48.0507 40.3357 47.6827 40.8744 47.1292 41.1011L32.4365 46.9765H32.4336L32.4071 46.9882C32.0568 47.1295 31.6653 47.1295 31.3149 46.9882L31.2884 46.9765H31.2855L17.1403 41.3189L2.96869 46.9853C2.79206 47.0559 2.6066 47.0913 2.42114 47.0913C2.1297 47.0913 1.84415 47.0059 1.59686 46.8381C1.19356 46.5644 0.949219 46.1081 0.949219 45.6195V19.1271C0.949219 18.5237 1.3172 17.985 1.87358 17.7613L16.5663 11.8829H16.5692L16.5957 11.8741C16.946 11.7328 17.3376 11.7328 17.6879 11.8741L17.7114 11.8829H17.7144L26.5253 15.4094C27.2819 15.7125 27.6499 16.5691 27.3466 17.3227C27.0434 18.0792 26.1779 18.4442 25.4331 18.144L18.6123 15.4152V38.7344L30.3876 43.4442V27.9579C30.3876 27.1455 31.047 26.4861 31.8595 26.4861C32.672 26.4861 33.3315 27.1455 33.3315 27.9579V43.4471L45.1068 38.7373V22.0707ZM3.89306 43.4442L15.6684 38.7344V15.4123L3.89306 20.1221V43.4442Z" fill="#C8C8C8"/>
<path fill-rule="evenodd" clip-rule="evenodd" d="M33.5579 10.8623C33.5579 8.36532 35.5899 6.33331 38.0868 6.33331C40.5838 6.33331 42.6158 8.36532 42.6158 10.8623C42.6158 13.3593 40.5838 15.3913 38.0868 15.3913C35.5899 15.3913 33.5579 13.3593 33.5579 10.8623ZM36.5772 10.8623C36.5772 11.6956 37.2535 12.372 38.0868 12.372C38.9202 12.372 39.5965 11.6956 39.5965 10.8623C39.5965 10.029 38.9202 9.35264 38.0868 9.35264C37.2535 9.35264 36.5772 10.029 36.5772 10.8623Z" fill="#C8C8C8"/>
<path fill-rule="evenodd" clip-rule="evenodd" d="M27.2173 11.1139C27.2173 5.48089 31.8899 0.89856 37.634 0.89856C43.378 0.89856 48.0506 5.48089 48.0506 11.1139C48.0506 16.3559 39.6935 25.6402 38.7411 26.6822C38.4584 26.9886 38.0566 27.1667 37.634 27.1667C37.2113 27.1667 36.8095 26.9886 36.5268 26.6822C35.5744 25.6402 27.2173 16.3559 27.2173 11.1139ZM30.1935 11.1139C30.1935 13.8984 34.384 19.7007 37.634 23.4804C40.884 19.7007 45.0744 13.8954 45.0744 11.1139C45.0744 7.092 41.7351 3.81724 37.634 3.81724C33.5328 3.81724 30.1935 7.092 30.1935 11.1139Z" fill="#C8C8C8"/>
</svg>
