<svg width="19" height="19" viewBox="0 0 19 19" fill="none" xmlns="http://www.w3.org/2000/svg">
<g opacity="0.4">
<path fill-rule="evenodd" clip-rule="evenodd" d="M12.956 0.679688H5.12172C2.39074 0.679688 0.679688 2.61266 0.679688 5.34816V12.7295C0.679688 15.465 2.38349 17.398 5.12172 17.398H12.9551C15.6942 17.398 17.398 15.465 17.398 12.7295V5.34816C17.398 2.61266 15.6942 0.679688 12.956 0.679688Z" stroke="#626262" stroke-width="1.3587" stroke-linecap="round" stroke-linejoin="round"/>
<path fill-rule="evenodd" clip-rule="evenodd" d="M7.88333 6.14634C7.88333 7.06935 7.13424 7.81844 6.21123 7.81844C5.28913 7.81844 4.54004 7.06935 4.54004 6.14634C4.54004 5.22334 5.28913 4.47424 6.21123 4.47424C7.13424 4.47424 7.88333 5.22334 7.88333 6.14634Z" stroke="#626262" stroke-width="1.3587" stroke-linecap="round" stroke-linejoin="round"/>
<path d="M17.3973 11.7306C16.4969 10.9471 15.7134 10.0041 14.6808 9.38183C13.6464 8.75955 12.535 9.14361 11.8176 10.072C11.1246 10.9697 10.6917 12.1771 9.64547 12.7432C8.35652 13.4416 7.59927 12.3157 6.52412 11.8646C5.32394 11.3619 4.41271 12.2659 3.71162 13.1346C3.00963 14.0041 2.29858 14.8646 1.58481 15.7251" stroke="#626262" stroke-width="1.3587" stroke-linecap="round" stroke-linejoin="round"/>
</g>
</svg>
