<svg width="16" height="19" viewBox="0 0 16 19" fill="none" xmlns="http://www.w3.org/2000/svg">
<circle cx="8.03972" cy="4.85033" r="4.01701" stroke="#D8D8D8" stroke-linecap="round" stroke-linejoin="round"/>
<path fill-rule="evenodd" clip-rule="evenodd" d="M1.34474 14.8905C1.3436 14.5925 1.41 14.2982 1.53891 14.0297C1.94343 13.2177 3.08419 12.7874 4.03078 12.5925C4.71346 12.4463 5.40557 12.3485 6.10195 12.3001C7.39121 12.1864 8.68796 12.1864 9.97728 12.3001C10.6736 12.3491 11.3657 12.4468 12.0485 12.5925C12.995 12.7874 14.1358 13.1771 14.5403 14.0297C14.7996 14.5769 14.7996 15.2122 14.5403 15.7594C14.1358 16.612 12.995 17.0017 12.0485 17.1886C11.3666 17.3408 10.6742 17.4412 9.97728 17.489C8.92793 17.5783 7.87363 17.5945 6.82198 17.5378C6.57928 17.5378 6.34466 17.5378 6.10195 17.489C5.40762 17.4419 4.71791 17.3414 4.03887 17.1886C3.08419 17.0017 1.95153 16.612 1.53891 15.7594C1.41066 15.4878 1.34433 15.191 1.34474 14.8905Z" stroke="#D8D8D8" stroke-linecap="round" stroke-linejoin="round"/>
</svg>
