<svg width="16" height="19" viewBox="0 0 16 19" fill="none" xmlns="http://www.w3.org/2000/svg">
<circle cx="8.03978" cy="4.85033" r="4.01701" stroke="#01005A" stroke-linecap="round" stroke-linejoin="round"/>
<path fill-rule="evenodd" clip-rule="evenodd" d="M1.34477 14.8905C1.34363 14.5925 1.41003 14.2982 1.53894 14.0297C1.94346 13.2177 3.08422 12.7874 4.03081 12.5925C4.71349 12.4463 5.4056 12.3485 6.10198 12.3001C7.39124 12.1864 8.68799 12.1864 9.97731 12.3001C10.6736 12.3491 11.3657 12.4468 12.0485 12.5925C12.9951 12.7874 14.1358 13.1771 14.5404 14.0297C14.7996 14.5769 14.7996 15.2122 14.5404 15.7594C14.1358 16.612 12.9951 17.0017 12.0485 17.1886C11.3666 17.3408 10.6743 17.4412 9.97731 17.489C8.92796 17.5783 7.87366 17.5945 6.82202 17.5378C6.57931 17.5378 6.34469 17.5378 6.10198 17.489C5.40765 17.4419 4.71794 17.3414 4.0389 17.1886C3.08422 17.0017 1.95156 16.612 1.53894 15.7594C1.41069 15.4878 1.34436 15.191 1.34477 14.8905Z" stroke="#01005A" stroke-linecap="round" stroke-linejoin="round"/>
</svg>
