<svg width="8" height="10" viewBox="0 0 8 10" fill="none" xmlns="http://www.w3.org/2000/svg">
<circle cx="3.43246" cy="2.3904" r="2.16396" stroke="#626262" stroke-width="0.679348" stroke-linecap="round" stroke-linejoin="round"/>
<path fill-rule="evenodd" clip-rule="evenodd" d="M7.39916e-06 7.56402C-0.00057684 7.4119 0.0334449 7.26162 0.0995001 7.12458C0.306774 6.71004 0.891294 6.49034 1.37632 6.39084C1.72612 6.3162 2.08075 6.26629 2.43758 6.24161C3.09819 6.18354 3.76263 6.18354 4.42328 6.24161C4.78007 6.26661 5.13469 6.31647 5.48455 6.39084C5.96956 6.49034 6.55407 6.6893 6.76137 7.12458C6.8942 7.40392 6.8942 7.72824 6.76137 8.00759C6.55407 8.44287 5.96956 8.64183 5.48455 8.73721C5.13514 8.81493 4.78039 8.8662 4.42328 8.89056C3.8856 8.93617 3.34538 8.94446 2.80652 8.91547C2.68216 8.91547 2.56194 8.91547 2.43758 8.89056C2.08181 8.86651 1.7284 8.81525 1.38046 8.73721C0.891294 8.64183 0.310922 8.44287 0.0995001 8.00759C0.0337846 7.86896 -0.000205463 7.71742 7.39916e-06 7.56402Z" stroke="#626262" stroke-width="0.679348" stroke-linecap="round" stroke-linejoin="round"/>
</svg>
