<svg width="39" height="41" viewBox="0 0 39 41" fill="none" xmlns="http://www.w3.org/2000/svg">
<path d="M9.96377 39.2601C4.47013 39.2601 0 34.8915 0 29.5227V10.0481C0 4.67933 4.47013 0.310791 9.96377 0.310791C15.4574 0.310791 19.9275 4.67933 19.9275 10.0481V29.5227C19.9275 34.8915 15.4574 39.2601 9.96377 39.2601Z" fill="#CCDADE"/>
<path d="M3.62329 10.7275C3.62329 13.974 6.43632 16.6151 9.89419 16.6151H19.9276V10.7275C19.9276 8.50061 19.096 6.4543 17.7141 4.83978H9.89419C6.43632 4.83978 3.62329 7.4809 3.62329 10.7275Z" fill="#B6CDD3"/>
<path d="M33.5145 10.2746C33.5145 12.2756 31.8923 13.8977 29.8913 13.8977H10.0461C8.00306 13.8977 6.34058 12.2722 6.34058 10.2746C6.34058 8.27691 8.00306 6.65137 10.0461 6.65137H29.8913C31.8923 6.65137 33.5145 8.27352 33.5145 10.2746Z" fill="#FFCB5A"/>
<path d="M13.587 18.4267C11.5859 18.4267 9.96377 20.0489 9.96377 22.0499V37.7504C4.47013 37.7504 0 33.4157 0 28.0886V30.504C0 35.8312 4.47013 40.1659 9.96377 40.1659C15.4574 40.1659 19.9275 35.8312 19.9275 30.504V18.4267H13.587Z" fill="#B6CDD3"/>
<path d="M36.4789 40.1659H14.2457C12.8809 40.1659 11.7754 39.0512 11.7754 37.6749V22.7293C11.7754 21.3531 12.8809 20.2383 14.2457 20.2383H36.4789C37.8438 20.2383 38.9493 21.3531 38.9493 22.7293V37.6749C38.9493 39.0512 37.8438 40.1659 36.4789 40.1659Z" fill="#E4EDFB"/>
<path d="M38.9493 28.3905H11.7754V22.5675C11.7754 21.2807 12.8809 20.2383 14.2457 20.2383H36.4789C37.8438 20.2383 38.9493 21.2807 38.9493 22.5675V28.3905Z" fill="#3C3C47"/>
<path fill-rule="evenodd" clip-rule="evenodd" d="M30.0422 34.7311C30.7925 34.7311 31.4008 34.1228 31.4008 33.3724C31.4008 32.622 30.7925 32.0137 30.0422 32.0137H23.0977C22.3473 32.0137 21.739 32.622 21.739 33.3724C21.739 34.1228 22.3473 34.7311 23.0977 34.7311H30.0422ZM35.024 34.7311C35.691 34.7311 36.2318 34.1904 36.2318 33.5234V33.2214C36.2318 32.5544 35.691 32.0137 35.024 32.0137C34.357 32.0137 33.8163 32.5544 33.8163 33.2214V33.5234C33.8163 34.1904 34.357 34.7311 35.024 34.7311Z" fill="#708299"/>
<path d="M28.0796 10.5334C28.0796 9.89018 28.601 9.36877 29.2442 9.36877C29.8874 9.36877 30.4088 9.89018 30.4088 10.5334V10.7125C30.4088 11.3557 29.8874 11.8771 29.2442 11.8771C28.601 11.8771 28.0796 11.3557 28.0796 10.7125V10.5334Z" fill="white"/>
<path d="M33.9026 24.0706C33.9026 23.5703 34.3081 23.1648 34.8084 23.1648H35.326C35.8262 23.1648 36.2318 23.5703 36.2318 24.0706V24.7673C36.2318 25.2676 35.8262 25.6731 35.326 25.6731H34.8084C34.3081 25.6731 33.9026 25.2676 33.9026 24.7673V24.0706Z" fill="white"/>
</svg>
