<svg width="9" height="8" viewBox="0 0 9 8" fill="none" xmlns="http://www.w3.org/2000/svg">
<path d="M8.39897 2.98631C8.34561 2.82226 8.19919 2.70575 8.02597 2.69023L5.67304 2.47791L4.74262 0.313679C4.67402 0.155069 4.51778 0.0523987 4.34419 0.0523987C4.17059 0.0523987 4.01435 0.155069 3.94575 0.314049L3.01533 2.47791L0.662025 2.69023C0.489116 2.70612 0.343076 2.82226 0.289399 2.98631C0.235723 3.15036 0.285294 3.3303 0.416096 3.44372L2.19464 4.99385L1.67019 7.28973C1.63181 7.45854 1.69774 7.63304 1.83868 7.73429C1.91444 7.78868 2.00307 7.81637 2.09245 7.81637C2.16951 7.81637 2.24595 7.79573 2.31455 7.75493L4.34419 6.54941L6.37307 7.75493C6.52154 7.84369 6.70869 7.8356 6.84932 7.73429C6.99032 7.63273 7.05619 7.45817 7.01781 7.28973L6.49336 4.99385L8.2719 3.44403C8.40271 3.3303 8.45265 3.15067 8.39897 2.98631Z" fill="#FFC107"/>
</svg>
