<svg width="10" height="10" viewBox="0 0 10 10" fill="none" xmlns="http://www.w3.org/2000/svg">
<path d="M9.2686 3.98631C9.21524 3.82226 9.06882 3.70575 8.8956 3.69023L6.54267 3.47791L5.61225 1.31368C5.54365 1.15507 5.38741 1.0524 5.21382 1.0524C5.04022 1.0524 4.88398 1.15507 4.81538 1.31405L3.88496 3.47791L1.53165 3.69023C1.35874 3.70612 1.2127 3.82226 1.15903 3.98631C1.10535 4.15036 1.15492 4.3303 1.28572 4.44372L3.06427 5.99385L2.53982 8.28973C2.50144 8.45854 2.56737 8.63304 2.70831 8.73429C2.78407 8.78868 2.8727 8.81637 2.96207 8.81637C3.03914 8.81637 3.11558 8.79573 3.18418 8.75493L5.21382 7.54941L7.2427 8.75493C7.39117 8.84369 7.57832 8.8356 7.71895 8.73429C7.85995 8.63273 7.92582 8.45817 7.88744 8.28973L7.36299 5.99385L9.14153 4.44403C9.27233 4.3303 9.32228 4.15067 9.2686 3.98631Z" stroke="#FFC107" stroke-width="0.905797"/>
</svg>
