<svg width="31" height="26" viewBox="0 0 31 26" fill="none" xmlns="http://www.w3.org/2000/svg">
<path d="M30.2437 3.75399C30.0415 3.53285 29.7159 3.47538 29.4502 3.61382C29.177 3.73793 28.8945 3.8401 28.6051 3.91933C29.0564 3.34178 29.3972 2.68581 29.6102 1.9844C29.704 1.63146 29.4939 1.26928 29.141 1.17548C28.9525 1.12539 28.7516 1.16104 28.5919 1.27288C27.5864 1.81701 26.5176 2.23504 25.4098 2.51743C23.1292 0.364833 19.6552 0.0965179 17.071 1.87336C15.0804 3.21928 13.9845 5.54546 14.2143 7.9373C9.8992 7.56961 5.92909 5.43133 3.24755 2.03071C3.10979 1.86406 2.90137 1.77231 2.68544 1.78341C2.46647 1.79655 2.26833 1.91744 2.15643 2.10609C1.24634 3.59379 0.982676 5.38837 1.42638 7.07495C1.6539 7.94151 2.04391 8.757 2.5757 9.47807C2.33616 9.36077 2.11074 9.21657 1.90386 9.04825C1.62023 8.81819 1.20381 8.86159 0.973687 9.14521C0.878214 9.26294 0.826014 9.40987 0.825952 9.56145C0.865257 12.0082 2.20882 14.2475 4.34926 15.4336C4.06049 15.3982 3.77544 15.3371 3.49751 15.2511C3.1478 15.1459 2.77899 15.3441 2.67378 15.6938C2.6279 15.8464 2.63863 16.0104 2.70397 16.1558C3.63297 18.2367 5.49022 19.7567 7.71387 20.2557C5.59531 21.451 3.15579 21.9532 0.737361 21.692C0.423789 21.6519 0.126708 21.8426 0.0324136 22.1443C-0.0647949 22.4437 0.0624193 22.77 0.336624 22.9246C3.29782 24.6841 6.66646 25.6413 10.1104 25.702C13.4143 25.6899 16.6412 24.7031 19.3868 22.8651C24.6281 19.3868 27.8949 13.1416 27.4399 7.5538C28.5606 6.72424 29.5328 5.71099 30.3152 4.55689C30.476 4.30395 30.4467 3.9745 30.2437 3.75399Z" fill="#03A9F4"/>
</svg>
